<?xml version="1.0" encoding="utf-8"?>
<!-- Generator: Adobe Illustrator 17.0.2, SVG Export Plug-In . SVG Version: 6.00 Build 0)  -->
<!DOCTYPE svg PUBLIC "-//W3C//DTD SVG 1.1//EN" "http://www.w3.org/Graphics/SVG/1.1/DTD/svg11.dtd">
<svg version="1.1" id="Layer_1" xmlns="http://www.w3.org/2000/svg" xmlns:xlink="http://www.w3.org/1999/xlink" x="0px" y="0px"
	 width="119px" height="137.682px" viewBox="0 0 119 137.682" enable-background="new 0 0 119 137.682" xml:space="preserve">
<polygon fill="#2D3E4F" points="119,103.261 59.5,137.682 0,103.261 0,34.42 59.5,0 119,34.42 "/>
<g>
	<text transform="matrix(1 0 0 1 92.8937 73.9296)" fill="#FFFFFF" font-family="'Lato-Light'" font-size="18.7828">M</text>
</g>
<g>
	<text transform="matrix(1 0 0 1 36.1788 113.5781)" fill="#FFFFFF" font-family="'Lato-Light'" font-size="10.838">NORWAY</text>
</g>
<text transform="matrix(1 0 0 1 12.2228 73.9296)" fill="#FFFFFF" font-family="'Lato-Light'" font-size="18.7828">B</text>
<line fill="none" stroke="#FFFFFF" stroke-width="0.5" stroke-miterlimit="10" x1="25.59" y1="34.712" x2="95.355" y2="104.477"/>
<line fill="none" stroke="#FFFFFF" stroke-width="0.5" stroke-miterlimit="10" x1="25.59" y1="103.475" x2="95.355" y2="33.71"/>
<path fill="#FFFFFF" d="M67.771,27.922L68,27.893v-0.012c0-0.373,0.407-0.799,0.575-1.254c0.205-0.553,0.107-1.204-0.09-1.762
	c-0.201-0.627-0.895-1.028-1.53-1.09c-0.602-0.017-1.195,0.176-1.564,0.672c-0.23,0.311-0.331,0.697-0.307,1.095
	c-0.238,0.311-0.412,0.651-0.559,0.999c-0.066,0.168-0.134,0.34-0.179,0.517c0.037,0.004,0.076,0,0.109-0.008
	c0.18-0.221,0.388-0.43,0.614-0.594l0.016-0.004c0.016,0.082,0.045,0.164,0.036,0.258c-0.369,0.463-0.749,0.946-1.057,1.447
	c-0.168,0.299-0.336,0.598-0.381,0.943c0.053,0.004,0.09,0,0.147-0.004l0.033-0.05c0.447-0.573,1.04-0.942,1.602-1.381
	c0.209-0.16,0.447-0.344,0.61-0.557c0.111-0.205,0.07-0.439,0.057-0.664c0.189,0.189,0.222,0.455,0.258,0.705
	c0.013,0.082,0,0.173,0.017,0.25c0.045,0.004,0.094-0.004,0.135-0.013c0.122-0.389,0.184-0.803,0.197-1.225
	c-0.086-0.275-0.197-0.545-0.382-0.771c-0.156-0.069-0.344-0.069-0.512-0.103c-0.028-0.081-0.033-0.18-0.033-0.262
	c0.049-0.34,0.381-0.615,0.701-0.696c0.418-0.086,0.84,0.045,1.139,0.356c0.275,0.275,0.316,0.64,0.332,1.025
	c0.009,0.778-0.521,1.398-1.107,1.868l-1.618,1.242c-0.414,0.332-0.889,0.701-1.156,1.168c-0.504,0.885-0.008,1.877,0.402,2.655
	l0.787,1.34c0.282,0.545,0.692,1.151,0.413,1.799c-0.221,0.402-0.643,0.66-1.094,0.689c-0.381-0.008-0.729-0.107-1-0.381
	c-0.512-0.627-0.807-1.364-1.147-2.065l-0.463-1.02c-0.123-0.27-0.258-0.537-0.467-0.766c0.008-0.504,0.016-0.975,0.024-1.471
	l0.025-1.16c0-0.283,0.012-0.545,0.025-0.836c0.09,0.02,0.163,0.078,0.25,0.103c0.004-0.25,0.037-0.512,0.156-0.729l0.553-0.984
	c0.36-0.693,0.586-1.455,0.577-2.283l0.18-0.2c0.151-0.111,0.123-0.311,0.127-0.476c-0.078-0.078-0.175-0.127-0.266-0.185
	c0.16-0.258,0.348-0.516,0.52-0.77l0.008-0.029c-0.11-0.045-0.27-0.045-0.389,0.004c-0.041-0.021-0.062-0.074-0.107-0.103
	c-0.086-0.045-0.192-0.016-0.27,0.029c-0.045,0.049-0.078,0.103-0.086,0.168c-0.021,0.103,0.037,0.192,0.119,0.254l-0.004,0.013
	c-0.053,0.081-0.144,0.049-0.217,0.04c-0.11-0.045-0.291-0.004-0.32-0.159c-0.008-0.078,0.074-0.016,0.111-0.041
	c0.081-0.021,0.135-0.098,0.159-0.176c0.013-0.066,0.017-0.131-0.021-0.189c-0.024-0.057-0.09-0.086-0.147-0.102
	c-0.078,0.016-0.062-0.07-0.094-0.107c-0.054-0.078-0.144-0.127-0.242-0.127c-0.082,0-0.16,0.049-0.221,0.102
	c-0.081-0.024-0.188-0.033-0.262,0.021c-0.069,0.078-0.115,0.193-0.066,0.295c0.033,0.074,0.115,0.098,0.164,0.156
	c-0.037,0.041-0.078,0.078-0.131,0.082c-0.132-0.016-0.275-0.033-0.398-0.082c-0.05-0.037-0.086-0.094-0.078-0.151
	c0.033,0,0.074,0.008,0.106-0.008c0.07-0.028,0.144-0.094,0.16-0.176c0.029-0.106-0.033-0.197-0.098-0.266
	c-0.09-0.053-0.213-0.066-0.303,0v0c-0.103-0.057-0.197-0.139-0.316-0.156c0.004,0.328,0.057,0.664,0.053,0.991
	c-0.205,0.18-0.414,0.332-0.611,0.517l0.041,0.467c0.07,0.144,0.173,0.254,0.263,0.385c-0.086,0.148-0.164,0.299-0.246,0.439
	c0.295,0.041,0.582,0.045,0.878,0.066l0.024,0.016c-0.012,0.041-0.012,0.086-0.049,0.115l-0.574,0.103
	c-0.303,0.057-0.586,0.16-0.852,0.299c-0.558,0.373-1.119,0.746-1.565,1.27c-0.045,0.045-0.053,0.115-0.094,0.156
	c-0.455-0.221-0.91-0.438-1.357-0.68c-0.016-0.065-0.037-0.127-0.066-0.184c-0.041-0.021-0.086,0-0.131-0.004
	c-0.086,0.012-0.176-0.013-0.246-0.062c-0.054-0.029-0.115-0.057-0.156-0.103c0.115-0.16,0.246-0.316,0.357-0.483
	c0.054-0.263,0.062-0.558-0.008-0.82l-0.132-0.123l-0.021,0.222c-0.037,0.098-0.081,0.188-0.135,0.279
	c-0.102,0.033-0.233,0.024-0.311,0.106c-0.065,0.127-0.094,0.279-0.156,0.402c0-0.398,0.008-0.742,0.016-1.127
	c0.074-0.004,0.135-0.004,0.209-0.012c0.012-0.299,0.008-0.631,0.012-0.931l-0.192-0.008L55.7,23.816
	c0.016-0.115,0.012-0.242,0.004-0.361c-0.152,0.004,0.102-0.004-0.045-0.004L56,23.455v0.357c0,0.025-0.463,0.004-0.492,0.008
	c-1.024,0.045-1.986-0.631-2.764-1.196l-0.106,0.012c-0.061,0.5-0.054,1.004,0.024,1.475c0.115,0.643,0.327,1.241,0.655,1.79
	c0.135-0.16,0.266-0.316,0.401-0.463c0.246-0.242,0.922-0.525,1.25-0.627c0.201-0.05,1.033-0.05,1.033-0.029v0.254l-0.424,0.656
	l-0.223,0.021c-0.147-0.066-0.433-0.062-0.593-0.091c-0.197-0.008-0.405,0.066-0.573,0.132c-0.045,0.049-0.117,0.11-0.141,0.168
	c0.163-0.021,0.315,0.008,0.462,0.053l0.121,0.345c0.135,0.127,0.345,0.086,0.513,0.127c-0.004,0.05,0.003,0.103-0.014,0.139
	c-0.193,0.078-0.386,0.151-0.554,0.279c-0.163,0.201-0.295,1.192-0.353,1.442l0.065,0.906h0.008l0.081-0.897
	c0.078-0.066,0.16-0.541,0.263-0.557c0.086,0.069,0.188-0.089,0.291-0.052c0.066-0.033,0.119-0.177,0.189-0.206l0.004-0.039
	l-0.021,1.156c-0.008,0.332-0.012,0.665-0.016,0.992l-0.021,1.347l-0.012,0.256h-0.311c-0.144,0-0.27-0.123-0.398-0.053
	c-0.021,0.062-0.045-0.002-0.057,0.059c0.029-0.004,0.062-0.064,0.086-0.073c0.119-0.008,0.25-0.076,0.365-0.035l0.16,0.383
	c0.049,0.016,0.106,0.009,0.151,0.033c0.004,0.205-0.008,0.402-0.012,0.603l-0.193,0.227c-0.065,0.123-0.127-0.58-0.163-0.445
	l0.062-0.7h0.012c0.078,0,0.18,0.69,0.266,0.621c0.008,0.352-0.004,1.138-0.004,1.503c0.172,0.016,0.303,0.214,0.476,0.214
	l0.02-0.574l0.033-1.765h0.008c0.07,0,0.123,0.699,0.189,0.707c0.221-0.176,0.405-0.079,0.57-0.304
	c0.156,0.069,0.328,0.268,0.451,0.403c0.033,0.098,0.033,0.289,0.008,0.388c0.033,0.041,0.082,0.125,0.131,0.141
	c0.135-0.188,0.299-0.343,0.447-0.528l1.098-1.243l0.201-0.212c0.073,0.163,0.144,0.338,0.221,0.502
	c0.185,0.225,0.434,0.427,0.577,0.686c0.086,0.348,0.185,0.701,0.213,1.062l-0.012,0.017c-0.508,0.201-1.025,0.385-1.475,0.713
	c-0.221,0.652-0.365,1.316-0.43,2.029c-0.009,0.151,0.094,0.279,0.127,0.414l-1.127-0.098c-0.164-0.02-0.345-0.029-0.5-0.05
	c-0.049-0.172-0.098-0.34-0.131-0.52c0.123-0.148,0.258-0.279,0.36-0.443c0.123-0.315,0.09-0.708-0.037-1.02
	c-0.045-0.041-0.106-0.074-0.163-0.091c0.041,0.185,0.012,0.381-0.082,0.533c-0.107,0.025-0.234,0.021-0.324,0.082
	c-0.041,0.184-0.053,0.381-0.074,0.573l-0.012,0.029c-0.123-0.185-0.226-0.369-0.365-0.549c-0.127-0.106-0.287-0.156-0.434-0.222
	l-0.533-0.028c-0.041,0.037-0.094,0.078-0.11,0.131l0.291,0.066c0.074,0.057,0.163,0.103,0.196,0.188
	c-0.065,0.098,0.204,0.209,0.212,0.328C55.251,34.999,56,35.052,56,35.196v0.008l-0.482,0.016l-0.548,0.008
	c-0.062,0.017-0.155,0.078-0.172,0.127c-0.033,0.066-0.063,0.151-0.137,0.192c-0.127,0.021-0.278,0.008-0.401-0.021l0.019,0.151
	c0.25,0.136,0.54,0.193,0.823,0.189c0.127-0.025,0.235-0.098,0.362-0.119c0.086,0.151,0.212,0.287,0.2,0.475
	c-0.074,0.103-0.165,0.168-0.263,0.255c0.004,0.061,0.053,0.118,0.094,0.163c0.115-0.037,0.25-0.049,0.369-0.037
	c0.644,0.127,1.246,0.304,1.889,0.43c0.139,0.094,0.263,0.201,0.398,0.295c0.266-0.086,0.532-0.168,0.77-0.323
	c0.004-0.107,0-0.214,0.009-0.316c0.106-0.254,0.291-0.48,0.467-0.701c0.246,0.23,0.476,0.508,0.705,0.766
	c0.184,0.226,0.398,0.447,0.549,0.689c0.18,0.861,0.282,1.803,0.221,2.692c-0.065,0.045-0.135,0.074-0.209,0.095
	c-0.053,0-0.135,0.053-0.168-0.013c-0.111-0.217-0.213-0.438-0.352-0.639c-0.238-0.164-0.484-0.303-0.778-0.328l-0.168,0.09
	c0.144,0.107,0.316,0.192,0.414,0.352c-0.037,0.16-0.078,0.328-0.057,0.496c0.209,0.139,0.455,0.213,0.66,0.352
	c-0.229,0.028-0.455,0.066-0.676,0.115c-0.213,0.151-0.389,0.275-0.521,0.492l0.025,0.062h0.009c0.122,0,0.282-0.078,0.442-0.115
	c0.103,0.106,0.225,0.225,0.364,0.246c0.164-0.127,0.312-0.256,0.468-0.416l0.004,0.02c-0.033,0.168-0.078,0.35-0.094,0.521
	c0.004,0.32,0.189,0.568,0.345,0.822c0.053,0.029,0.118,0.03,0.176,0.026c-0.054-0.172-0.098-0.352-0.074-0.54l0.192-0.123
	c0.045-0.053,0.123-0.078,0.156-0.151c-0.049-0.16-0.094-0.328-0.156-0.487c0.074-0.115,0.185-0.168,0.292-0.25
	c0.053-0.021,0.106-0.07,0.172-0.041c0.135,0.074,0.254,0.176,0.36,0.287l0.017,0.004l0.143-0.115
	c-0.033-0.107-0.041-0.217-0.053-0.332c-0.053-0.775,0.107-1.549,0.152-2.304c0.013-0.082,0.107-0.115,0.144-0.184
	c0.09-0.23,0.115-0.492,0.106-0.759L61.99,37.04c-0.127-0.357-0.143-0.746-0.176-1.135c-0.016-0.381-0.024-0.762-0.037-1.139
	l0.008-0.021l0.885,1.295c0.401,0.566,0.999,0.991,1.696,1.033c0.721,0.009,1.434-0.323,1.803-0.963
	c0.36-0.623,0.258-1.418,0.033-2.065c-0.168-0.512-0.389-1.008-0.471-1.549l0.008-0.021l1.25-0.611
	c-0.004-0.041-0.009-0.09-0.045-0.11l-0.34,0.037l-0.697-0.156l-0.275,0.029l-0.02-0.008c0.008-0.037-0.012-0.074,0.008-0.107
	c0.467-0.197,0.922-0.442,1.385-0.66c0.147-0.074,0.299-0.143,0.442-0.221c-0.004-0.037-0.021-0.07-0.037-0.103l-0.348,0.025
	l-0.746-0.152c-0.209,0.025-0.414,0.074-0.614,0.107c0.008-0.045,0.012-0.091,0.04-0.127c0.258-0.115,0.517-0.246,0.775-0.373
	l1.303-0.619c0.004-0.029-0.008-0.066-0.024-0.094c-0.152,0.008-0.299,0.028-0.447,0.037c-0.25-0.037-0.483-0.09-0.733-0.123
	l-0.258,0.029l0.082-0.008C66.764,28.774,67.382,28.368,67.771,27.922z M62.921,24.295l0.086-0.02
	c0.045,0.016,0.098,0.025,0.132,0.07c0.033,0.106-0.062,0.176-0.127,0.238c-0.024-0.045-0.021-0.103-0.037-0.156l-0.123-0.098
	C62.855,24.299,62.9,24.308,62.921,24.295z M55.876,31.745c-0.139,0.082-0.279,0.164-0.414,0.242
	c-0.012-0.164,0.008-0.311,0.004-0.483l0.008-0.008c0.132,0.008,0.25,0.029,0.373,0.041c0.029,0.057,0.021,0.127,0.029,0.189V31.745
	z M57.712,29.778l-0.734,1.176c-0.094,0.135-0.172,0.282-0.27,0.414c-0.098-0.029-0.188-0.086-0.275-0.139l-0.037-0.853
	c-0.057-0.139-0.11-0.287-0.209-0.41l-0.246-0.225l-0.147,0.012l-0.009,0.013c0.07,0.127,0.123,0.258,0.139,0.401
	c-0.115,0.119-0.172,0.258-0.213,0.41l0.004,0.045c0.069,0.156,0.131,0.316,0.192,0.475c-0.107-0.074-0.225-0.139-0.32-0.217
	l0.017-1.226c0.008-0.856,0.028-1.827,0.041-2.704l0.045-0.021l0.151,0.074c0,0.078-0.069,0.135-0.09,0.205
	c0.025,0.074,0.103,0.098,0.147,0.16l0.263,0.004c0.316,0.209,0.59,0.451,0.893,0.676l0.742,0.606
	c-0.017,0.135-0.057,0.258-0.09,0.386l0.013,0.016c0.139,0.004,0.299-0.008,0.438-0.016C58.024,29.295,57.864,29.536,57.712,29.778z
	 M60.107,26.901l-0.926,0.144c-0.127,0.028-0.197,0.156-0.263,0.254l-0.454,0.725c-0.033,0-0.022,0.02-0.06,0.012l0.549-0.885
	c0.16-0.209,0.439-0.176,0.66-0.229c0.176-0.029,0.369-0.05,0.553-0.074C60.167,26.885,60.119,26.869,60.107,26.901z M60.936,23.799
	c0.382,0.045,0.609,0.16,1.11,0.234v0.115l-0.499-0.135c-0.021,0.081-0.039,0.172-0.116,0.217c-0.103,0.016-0.21,0.037-0.312,0.004
	c-0.098-0.065-0.078-0.192-0.119-0.295c-0.082-0.004-0.156,0.054-0.226,0.091c-0.028-0.016-0.051-0.041-0.047-0.074L60.936,23.799z
	 M60.773,24.955l-0.094-0.328c0.004-0.012-0.008-0.024,0.008-0.037c0.282,0.029,0.574,0.037,0.869,0.066
	c0.037,0.11,0.057,0.229,0.074,0.348C61.339,24.988,61.06,24.975,60.773,24.955z"/>
</svg>
