<?xml version="1.0" encoding="utf-8"?>
<!-- Generator: Adobe Illustrator 17.0.2, SVG Export Plug-In . SVG Version: 6.00 Build 0)  -->
<!DOCTYPE svg PUBLIC "-//W3C//DTD SVG 1.1//EN" "http://www.w3.org/Graphics/SVG/1.1/DTD/svg11.dtd">
<svg version="1.1" id="Layer_1" xmlns="http://www.w3.org/2000/svg" xmlns:xlink="http://www.w3.org/1999/xlink" x="0px" y="0px"
	 width="113px" height="130.078px" viewBox="0 0 113 130.078" enable-background="new 0 0 113 130.078" xml:space="preserve">
<g>
	<path fill="#FFFFFF" d="M56.43,130.078l-0.176-0.101L0,97.558V32.519l0.177-0.102L56.43,0l0.246,0.101L113,32.519v65.039
		l-0.247,0.102L56.43,130.078z M1,97.151l55.5,32.113L112,97.151V32.927L56.5,0.814L1,32.927V97.151z"/>
	<g>
		<text transform="matrix(1 0 0 1 87.0342 69.8172)" fill="#FFFFFF" font-family="'Lato-Light'" font-size="17.6344">M</text>
	</g>
	<g>
		<text transform="matrix(1 0 0 1 33.791 107.0399)" fill="#FFFFFF" font-family="'Lato-Light'" font-size="10.1754">NORWAY</text>
	</g>
	<text transform="matrix(1 0 0 1 11.2979 69.8172)" fill="#FFFFFF" font-family="'Lato-Light'" font-size="17.6344">B</text>
	
		<rect x="10.283" y="65.393" transform="matrix(0.7071 0.7071 -0.7071 0.7071 63.0665 -20.7641)" fill="#FFFFFF" width="92.63" height="0.705"/>
	
		<rect x="56.245" y="18.491" transform="matrix(0.7071 0.7071 -0.7071 0.7071 62.4016 -21.0395)" fill="#FFFFFF" width="0.705" height="92.63"/>
	<path fill="#FFFFFF" d="M63.118,26.622L63,26.594v-0.011c1-0.35,0.715-0.75,0.872-1.177c0.193-0.52,0.267-1.131,0.082-1.654
		c-0.189-0.589-0.757-0.965-1.354-1.023c-0.566-0.016-1.081,0.165-1.427,0.631c-0.216,0.292-0.29,0.655-0.267,1.028
		c-0.223,0.292-0.377,0.611-0.515,0.938c-0.062,0.158-0.12,0.32-0.163,0.485c0.035,0.004,0.074,0,0.105-0.008
		c0.169-0.207,0.366-0.404,0.578-0.557l0.016-0.004c0.015,0.077,0.043,0.154,0.035,0.242c-0.346,0.435-0.703,0.888-0.993,1.358
		c-0.157,0.281-0.316,0.561-0.357,0.885c0.05,0.004,0.084,0,0.138-0.004l0.031-0.047c0.419-0.538,0.977-0.884,1.504-1.296
		c0.196-0.15,0.419-0.323,0.573-0.523c0.104-0.193,0.066-0.412,0.054-0.624c0.177,0.177,0.208,0.427,0.243,0.662
		c0.012,0.077,0,0.162,0.016,0.235c0.042,0.003,0.088-0.004,0.127-0.012c0.115-0.365,0.173-0.754,0.185-1.15
		c-0.081-0.258-0.185-0.512-0.358-0.724c-0.146-0.065-0.323-0.065-0.481-0.096c-0.027-0.076-0.031-0.169-0.031-0.246
		c0.046-0.32,0.358-0.577,0.658-0.654c0.393-0.081,0.789,0.042,1.07,0.334c0.258,0.258,0.296,0.601,0.312,0.962
		c0.008,0.731-0.489,1.312-1.039,1.754l-1.519,1.166c-0.389,0.312-0.835,0.658-1.085,1.096c-0.473,0.831-0.007,1.762,0.377,2.493
		l0.739,1.258c0.265,0.512,0.65,1.081,0.388,1.689c-0.207,0.377-0.604,0.619-1.027,0.646c-0.357-0.008-0.684-0.1-0.939-0.358
		c-0.48-0.589-0.757-1.281-1.077-1.939l-0.434-0.958c-0.116-0.254-0.243-0.504-0.439-0.72c0.007-0.473,0.015-0.916,0.023-1.381
		l0.023-1.089c0-0.266,0.011-0.512,0.023-0.785c0.084,0.019,0.153,0.073,0.235,0.096c0.004-0.235,0.035-0.481,0.146-0.684
		l0.52-0.924c0.338-0.65,0.55-1.366,0.542-2.143l0.169-0.188c0.142-0.104,0.116-0.292,0.119-0.446
		c-0.073-0.073-0.165-0.12-0.25-0.173c0.15-0.243,0.327-0.484,0.488-0.723l0.008-0.027c-0.104-0.042-0.254-0.042-0.365,0.004
		c-0.039-0.019-0.058-0.069-0.1-0.096c-0.08-0.042-0.181-0.015-0.254,0.027c-0.042,0.046-0.073,0.096-0.08,0.157
		c-0.019,0.096,0.035,0.181,0.112,0.239l-0.004,0.012c-0.05,0.076-0.135,0.046-0.204,0.038c-0.104-0.042-0.273-0.003-0.3-0.15
		c-0.007-0.073,0.069-0.015,0.104-0.039c0.076-0.019,0.127-0.092,0.149-0.165c0.012-0.062,0.016-0.123-0.019-0.177
		c-0.023-0.054-0.084-0.08-0.138-0.096c-0.073,0.015-0.058-0.066-0.088-0.1c-0.051-0.073-0.135-0.119-0.227-0.119
		c-0.077,0-0.15,0.046-0.208,0.096c-0.076-0.023-0.177-0.031-0.246,0.019c-0.065,0.073-0.108,0.181-0.062,0.277
		c0.031,0.07,0.108,0.092,0.154,0.146c-0.035,0.039-0.073,0.073-0.123,0.077c-0.124-0.015-0.258-0.031-0.373-0.077
		c-0.046-0.035-0.081-0.088-0.073-0.142c0.031,0,0.069,0.008,0.1-0.008c0.066-0.027,0.135-0.088,0.15-0.165
		c0.027-0.1-0.031-0.185-0.092-0.25c-0.084-0.05-0.2-0.062-0.284,0v0c-0.096-0.054-0.185-0.131-0.296-0.146
		c0.004,0.308,0.054,0.623,0.05,0.931c-0.192,0.169-0.389,0.312-0.573,0.485l0.039,0.439c0.066,0.135,0.162,0.239,0.246,0.361
		c-0.081,0.139-0.154,0.281-0.231,0.412c0.277,0.039,0.547,0.043,0.824,0.062l0.023,0.015c-0.011,0.039-0.011,0.08-0.046,0.108
		l-0.539,0.096c-0.284,0.054-0.55,0.15-0.8,0.28c-0.524,0.35-1.05,0.7-1.47,1.193c-0.043,0.043-0.05,0.108-0.088,0.146
		c-0.427-0.207-0.854-0.411-1.274-0.639c-0.015-0.061-0.035-0.119-0.062-0.173c-0.039-0.019-0.08,0-0.123-0.004
		c-0.081,0.011-0.165-0.012-0.231-0.058c-0.051-0.027-0.108-0.054-0.147-0.096c0.108-0.15,0.231-0.296,0.335-0.454
		c0.051-0.247,0.058-0.524-0.007-0.769l-0.124-0.116l-0.019,0.208c-0.035,0.092-0.076,0.177-0.127,0.262
		c-0.096,0.031-0.219,0.023-0.292,0.1c-0.061,0.12-0.088,0.262-0.146,0.377c0-0.373,0.008-0.697,0.015-1.058
		c0.07-0.004,0.127-0.004,0.197-0.011c0.011-0.281,0.007-0.593,0.011-0.874l-0.181-0.007l-0.015-0.015
		c0.015-0.108,0.011-0.227,0.004-0.339c-0.143,0.004-0.103-0.004-0.242-0.004L52,22.428v0.335c-1,0.023-0.236,0.004-0.263,0.007
		c-0.961,0.042-1.764-0.592-2.495-1.123l-0.049,0.011c-0.057,0.469-0.026,0.943,0.047,1.385c0.108,0.604,0.32,1.165,0.627,1.681
		c0.127-0.15,0.256-0.296,0.383-0.435c0.231-0.227,0.169-0.493,0.477-0.589C50.915,23.655,51,23.655,51,23.674v0.239l0.301,0.616
		l0.14,0.019c-0.138-0.062-0.232-0.058-0.382-0.085c-0.185-0.007-0.293,0.062-0.45,0.124c-0.043,0.046-0.066,0.104-0.089,0.157
		c0.153-0.019,0.317,0.008,0.455,0.05l0.124,0.324c0.127,0.119,0.329,0.08,0.487,0.119c-0.003,0.046,0.005,0.096-0.01,0.131
		c-0.181,0.073-0.361,0.142-0.519,0.262c-0.153,0.189-0.276,0.463-0.331,0.697l0.062,0.194h0.008l0.076-0.186
		c0.073-0.062,0.15-0.179,0.246-0.195c0.081,0.065,0.177-0.235,0.273-0.201c0.062-0.031,0.112-0.419,0.177-0.419h0.003l-0.019,1.42
		c-0.007,0.312-0.011,0.791-0.015,1.099l-0.019,1.121l-0.011,0.055l-0.292,0.023c-0.135,0.035-0.254,0.121-0.373,0.187
		c-0.019,0.058-0.042,0.117-0.054,0.174c0.027-0.003,0.058-0.001,0.081-0.009c0.112-0.007,0.235-0.041,0.342-0.003l0.15,0.374
		c0.046,0.015,0.1,0.016,0.142,0.039c0.004,0.193-0.008,0.381-0.011,0.57l-0.181,0.215c-0.061,0.116-0.119,0.361-0.153,0.487
		l0.058,0.248h0.011c0.073,0,0.169-0.256,0.25-0.321c0.008,0.331-0.003,0.616-0.003,0.959c0.161,0.015,0.284-0.025,0.446-0.025
		l0.019-0.023l0.031-1.097l0.007-0.023c0.066-0.004,0.116,0.017,0.177,0.025c0.207-0.165,0.381-0.394,0.535-0.605
		c0.146,0.065,0.308,0.092,0.423,0.219c0.031,0.092,0.031,0.192,0.007,0.284c0.031,0.039,0.077,0.077,0.123,0.092
		c0.127-0.177,0.281-0.342,0.42-0.516l1.031-1.177l0.189-0.204c0.069,0.153,0.135,0.315,0.208,0.469
		c0.173,0.211,0.408,0.4,0.542,0.642c0.081,0.327,0.173,0.658,0.2,0.997l-0.011,0.015c-0.477,0.189-0.962,0.361-1.385,0.669
		c-0.208,0.612-0.343,1.235-0.404,1.905c-0.008,0.142,0.088,0.262,0.119,0.389l-1.058-0.092c-0.154-0.019-0.324-0.027-0.47-0.046
		c-0.046-0.161-0.092-0.319-0.123-0.488c0.116-0.139,0.242-0.262,0.338-0.416c0.116-0.296,0.085-0.665-0.035-0.957
		c-0.042-0.039-0.1-0.07-0.153-0.085c0.038,0.173,0.011,0.358-0.077,0.5c-0.1,0.023-0.219,0.019-0.304,0.077
		c-0.039,0.173-0.05,0.357-0.069,0.538l-0.011,0.027c-0.116-0.173-0.212-0.346-0.342-0.516c-0.12-0.1-0.27-0.146-0.408-0.208
		l-0.5-0.027c-0.039,0.035-0.088,0.073-0.104,0.123l0.273,0.062c0.069,0.054,0.153,0.096,0.184,0.177
		c-0.061,0.092-0.008,0.196,0,0.308C51.497,33.266,51,33.316,52,33.451v0.008l-0.253,0.015l-0.415,0.007
		c-0.058,0.016-0.096,0.073-0.111,0.12c-0.031,0.062-0.035,0.142-0.104,0.181c-0.12,0.019-0.248,0.008-0.364-0.019l0.024,0.142
		c0.235,0.128,0.51,0.181,0.776,0.177c0.119-0.023,0.222-0.092,0.342-0.112c0.081,0.142,0.2,0.269,0.188,0.446
		c-0.07,0.096-0.154,0.158-0.247,0.239c0.004,0.057,0.05,0.111,0.088,0.153c0.108-0.035,0.234-0.046,0.346-0.035
		c0.605,0.12,1.17,0.285,1.774,0.404c0.131,0.088,0.246,0.189,0.373,0.277c0.25-0.081,0.5-0.157,0.723-0.304
		c0.004-0.1,0-0.201,0.008-0.296c0.1-0.239,0.273-0.451,0.438-0.658c0.231,0.216,0.446,0.477,0.662,0.72
		c0.173,0.212,0.373,0.419,0.516,0.646c0.169,0.808,0.265,1.693,0.207,2.527c-0.061,0.043-0.127,0.07-0.196,0.089
		c-0.05,0-0.127,0.05-0.158-0.012c-0.104-0.204-0.2-0.411-0.331-0.6c-0.223-0.154-0.455-0.284-0.731-0.308l-0.158,0.084
		c0.135,0.1,0.296,0.181,0.389,0.331c-0.035,0.15-0.073,0.308-0.054,0.466c0.196,0.131,0.427,0.2,0.619,0.331
		c-0.215,0.027-0.427,0.062-0.635,0.108c-0.2,0.142-0.365,0.468-0.489,0.672l0.023,0.268h0.008c0.115,0,0.265-0.284,0.415-0.318
		c0.096,0.1,0.211,0.106,0.342,0.126c0.154-0.12,0.293-0.293,0.439-0.443l0.003-0.008c-0.031,0.157-0.073,0.315-0.088,0.476
		c0.004,0.3,0.177,0.527,0.324,0.765c0.05,0.027,0.111,0.025,0.165,0.021c-0.05-0.161-0.092-0.332-0.07-0.509l0.181-0.116
		c0.042-0.05,0.116-0.073,0.146-0.142c-0.046-0.15-0.088-0.308-0.146-0.458c0.07-0.108,0.173-0.158,0.274-0.235
		c0.05-0.019,0.1-0.066,0.161-0.039c0.127,0.069,0.239,0.165,0.338,0.269l0.016,0.004l0.134-0.108
		c-0.031-0.1-0.039-0.204-0.05-0.312c-0.05-0.728,0.1-1.454,0.142-2.163c0.012-0.077,0.1-0.108,0.135-0.173
		c0.084-0.216,0.108-0.462,0.1-0.712l-0.2-0.265c-0.119-0.335-0.134-0.7-0.166-1.066c-0.015-0.358-0.022-0.716-0.034-1.07
		l0.008-0.019l0.831,1.216c0.377,0.531,0.938,0.931,1.593,0.969c0.677,0.008,1.346-0.304,1.693-0.904
		c0.338-0.585,0.242-1.331,0.031-1.939c-0.157-0.481-0.365-0.946-0.442-1.454l0.008-0.019l1.173-0.573
		c-0.004-0.039-0.008-0.084-0.043-0.104l-0.319,0.035l-0.654-0.146l-0.258,0.027l-0.019-0.008c0.008-0.035-0.011-0.069,0.008-0.1
		c0.439-0.185,0.866-0.415,1.3-0.619c0.138-0.069,0.281-0.134,0.415-0.207c-0.004-0.035-0.019-0.066-0.035-0.096l-0.327,0.023
		l-0.7-0.143c-0.196,0.023-0.389,0.07-0.577,0.1c0.007-0.042,0.011-0.085,0.038-0.12c0.243-0.108,0.485-0.231,0.728-0.35
		l1.223-0.581c0.004-0.027-0.007-0.062-0.023-0.088c-0.143,0.007-0.281,0.027-0.42,0.035c-0.234-0.035-0.454-0.084-0.688-0.116
		l-0.243,0.027l-0.09-0.008C62.338,27.422,62.753,27.041,63.118,26.622z M58.897,23.216l0.08-0.019
		c0.042,0.015,0.092,0.023,0.124,0.066c0.031,0.1-0.058,0.165-0.12,0.223c-0.023-0.043-0.019-0.096-0.035-0.146l-0.116-0.092
		C58.835,23.22,58.877,23.228,58.897,23.216z M52.283,30.211c-0.131,0.077-0.262,0.154-0.389,0.227
		c-0.011-0.154,0.008-0.292,0.004-0.454l0.007-0.008c0.124,0.008,0.235,0.027,0.35,0.039c0.027,0.054,0.019,0.12,0.027,0.177V30.211
		z M54.006,28.364l-0.689,1.104c-0.088,0.127-0.161,0.265-0.254,0.389c-0.092-0.027-0.177-0.081-0.258-0.131l-0.035-0.801
		c-0.054-0.131-0.104-0.269-0.196-0.385l-0.231-0.211l-0.138,0.011l-0.008,0.012c0.066,0.119,0.116,0.242,0.131,0.377
		c-0.108,0.112-0.161,0.243-0.2,0.385l0.004,0.043c0.065,0.146,0.123,0.296,0.181,0.446c-0.1-0.069-0.211-0.13-0.3-0.203
		l0.016-1.151c0.007-0.804,0.027-1.716,0.039-2.539l0.042-0.019l0.142,0.069c0,0.073-0.065,0.127-0.084,0.192
		c0.023,0.069,0.096,0.092,0.138,0.15l0.246,0.004c0.296,0.196,0.554,0.423,0.838,0.635l0.697,0.569
		c-0.016,0.127-0.054,0.243-0.085,0.362l0.012,0.015c0.13,0.004,0.28-0.008,0.411-0.015C54.299,27.911,54.149,28.137,54.006,28.364z
		 M56.255,25.664l-0.87,0.135c-0.119,0.027-0.185,0.146-0.246,0.239l-0.427,0.681c-0.031,0-0.021,0.019-0.056,0.011l0.516-0.831
		c0.15-0.196,0.412-0.165,0.62-0.215c0.165-0.027,0.346-0.046,0.52-0.069C56.311,25.648,56.267,25.633,56.255,25.664z
		 M57.033,22.751c0.358,0.042,0.572,0.15,1.042,0.22v0.108l-0.469-0.127c-0.019,0.076-0.036,0.161-0.109,0.204
		c-0.096,0.015-0.197,0.035-0.293,0.003c-0.092-0.061-0.074-0.181-0.112-0.277c-0.077-0.003-0.146,0.051-0.212,0.085
		c-0.027-0.015-0.048-0.039-0.044-0.07L57.033,22.751z M56.88,23.836l-0.088-0.308c0.004-0.011-0.007-0.023,0.008-0.035
		c0.265,0.027,0.539,0.035,0.816,0.062c0.035,0.104,0.054,0.215,0.069,0.327C57.412,23.867,57.15,23.855,56.88,23.836z"/>
</g>
</svg>
